<svg width="60" height="40" viewBox="0 0 60 40" fill="none" xmlns="http://www.w3.org/2000/svg">
<rect width="60" height="40" fill="white"/>
<circle cx="30" cy="20" r="11.5" stroke="black"/>
<circle cx="30" cy="20" r="7.5" stroke="black"/>
<circle cx="30" cy="16" r="0.5" stroke="black"/>
<circle cx="30" cy="20" r="1.5" stroke="black"/>
<circle cx="26" cy="22" r="0.5" stroke="black"/>
<circle cx="30" cy="24" r="0.5" stroke="black"/>
<circle cx="34" cy="22" r="0.5" stroke="black"/>
<circle cx="34" cy="18" r="0.5" stroke="black"/>
<circle cx="26" cy="18" r="0.5" stroke="black"/>
<path d="M34 7.5L32.1875 7.04688C32.0669 7.01672 31.9618 6.94265 31.8928 6.83916L31.1484 5.72265C31.0557 5.58355 30.8996 5.5 30.7324 5.5H29.2676C29.1004 5.5 28.9443 5.58355 28.8516 5.72265L28.1072 6.83916C28.0382 6.94265 27.9331 7.01672 27.8125 7.04688L26 7.5" stroke="black"/>
<path d="M26 32.5L27.8125 32.9531C27.9331 32.9833 28.0382 33.0573 28.1072 33.1608L28.8516 34.2774C28.9443 34.4164 29.1004 34.5 29.2676 34.5H30.7324C30.8996 34.5 31.0557 34.4164 31.1484 34.2774L31.8928 33.1608C31.9618 33.0573 32.0669 32.9833 32.1875 32.9531L34 32.5" stroke="black"/>
<path d="M28.912 6.92057L27.0641 7.19555C26.941 7.21385 26.8156 7.18565 26.7123 7.11643L25.5973 6.36976C25.4584 6.27674 25.2822 6.25929 25.1277 6.32326L23.7744 6.88382C23.62 6.9478 23.5077 7.08473 23.4753 7.24873L23.2149 8.5651C23.1907 8.68712 23.122 8.79576 23.022 8.86981L21.5209 9.98204" stroke="black"/>
<path d="M31.088 33.0789L32.9359 32.804C33.059 32.7857 33.1844 32.8139 33.2877 32.8831L34.4027 33.6298C34.5416 33.7228 34.7178 33.7402 34.8723 33.6762L36.2256 33.1157C36.38 33.0517 36.4923 32.9148 36.5247 32.7508L36.7851 31.4344C36.8093 31.3124 36.878 31.2038 36.978 31.1297L38.4791 30.0175" stroke="black"/>
<path d="M23.9896 8.33255L22.3876 9.29376C22.2809 9.35776 22.1542 9.3797 22.0323 9.3553L20.7165 9.09214C20.5525 9.05935 20.3831 9.11067 20.2648 9.22888L19.2291 10.2647C19.1109 10.3829 19.0595 10.5523 19.0923 10.7163L19.3555 12.0321C19.3799 12.1541 19.3579 12.2807 19.2939 12.3874L18.3327 13.9894" stroke="black"/>
<path d="M36.0104 31.667L37.6124 30.7058C37.7191 30.6418 37.8458 30.6198 37.9677 30.6442L39.2835 30.9074C39.4475 30.9402 39.6169 30.8888 39.7352 30.7706L40.7709 29.7349C40.8891 29.6166 40.9405 29.4472 40.9077 29.2832L40.6445 27.9674C40.6201 27.8455 40.6421 27.7188 40.7061 27.6121L41.6673 26.0101" stroke="black"/>
<path d="M19.9822 11.5208L18.87 13.0219C18.796 13.1219 18.6873 13.1906 18.5653 13.2147L17.2489 13.4752C17.0849 13.5076 16.948 13.6199 16.884 13.7743L16.3235 15.1276C16.2595 15.2821 16.2769 15.4583 16.37 15.5972L17.1166 16.7121C17.1858 16.8155 17.2141 16.9409 17.1957 17.0639L16.9208 18.9119" stroke="black"/>
<path d="M40.0178 28.4787L41.13 26.9776C41.204 26.8777 41.3127 26.8089 41.4347 26.7848L42.7511 26.5244C42.9151 26.4919 43.052 26.3797 43.116 26.2252L43.6765 24.8719C43.7405 24.7174 43.7231 24.5412 43.63 24.4023L42.8834 23.2874C42.8142 23.184 42.7859 23.0586 42.8043 22.9356L43.0792 21.0877" stroke="black"/>
<path d="M17.5 16L17.0469 17.8125C17.0167 17.9331 16.9427 18.0382 16.8392 18.1072L15.7226 18.8516C15.5836 18.9443 15.5 19.1004 15.5 19.2676V20.7324C15.5 20.8996 15.5836 21.0557 15.7226 21.1484L16.8392 21.8928C16.9427 21.9618 17.0167 22.0669 17.0469 22.1875L17.5 24" stroke="black"/>
<path d="M42.5 24L42.9531 22.1875C42.9833 22.0669 43.0573 21.9618 43.1608 21.8928L44.2774 21.1484C44.4164 21.0557 44.5 20.8996 44.5 20.7324V19.2676C44.5 19.1004 44.4164 18.9443 44.2774 18.8516L43.1608 18.1072C43.0573 18.0382 42.9833 17.9331 42.9531 17.8125L42.5 16" stroke="black"/>
<path d="M16.9208 21.0882L17.1957 22.9361C17.2141 23.0592 17.1858 23.1846 17.1166 23.2879L16.37 24.4029C16.2769 24.5418 16.2595 24.718 16.3235 24.8725L16.884 26.2258C16.948 26.3802 17.0849 26.4925 17.2489 26.5249L18.5653 26.7853C18.6873 26.8095 18.796 26.8782 18.87 26.9782L19.9822 28.4793" stroke="black"/>
<path d="M43.0792 18.9123L42.8042 17.0644C42.7859 16.9413 42.8141 16.8159 42.8834 16.7125L43.63 15.5976C43.7231 15.4587 43.7405 15.2825 43.6765 15.128L43.116 13.7747C43.052 13.6203 42.9151 13.508 42.7511 13.4756L41.4347 13.2152C41.3127 13.191 41.204 13.1223 41.13 13.0223L40.0178 11.5212" stroke="black"/>
<path d="M18.3327 26.0105L19.2939 27.6125C19.3579 27.7191 19.3799 27.8458 19.3555 27.9678L19.0923 29.2836C19.0595 29.4475 19.1108 29.617 19.2291 29.7352L20.2648 30.771C20.383 30.8892 20.5525 30.9405 20.7164 30.9077L22.0323 30.6446C22.1542 30.6202 22.2809 30.6421 22.3876 30.7061L23.9896 31.6673" stroke="black"/>
<path d="M41.6673 13.9895L40.706 12.3875C40.6421 12.2809 40.6201 12.1542 40.6445 12.0322L40.9077 10.7164C40.9405 10.5525 40.8891 10.383 40.7709 10.2648L39.7352 9.22899C39.6169 9.11078 39.4475 9.05947 39.2835 9.09226L37.9677 9.35542C37.8457 9.37981 37.7191 9.35787 37.6124 9.29388L36.0104 8.33267" stroke="black"/>
<path d="M21.5209 30.018L23.022 31.1302C23.122 31.2043 23.1907 31.3129 23.2149 31.435L23.4753 32.7513C23.5077 32.9153 23.62 33.0523 23.7744 33.1162L25.1277 33.6768C25.2822 33.7408 25.4584 33.7233 25.5973 33.6303L26.7123 32.8836C26.8156 32.8144 26.941 32.7862 27.0641 32.8045L28.912 33.0795" stroke="black"/>
<path d="M38.4791 9.98247L36.978 8.87024C36.878 8.79619 36.8093 8.68755 36.7851 8.56553L36.5247 7.24916C36.4923 7.08517 36.38 6.94823 36.2256 6.88426L34.8722 6.3237C34.7178 6.25972 34.5416 6.27717 34.4027 6.37019L33.2877 7.11687C33.1844 7.18608 33.0589 7.21428 32.9359 7.19598L31.088 6.921" stroke="black"/>
</svg>
