<svg width="60" height="40" viewBox="0 0 60 40" fill="none" xmlns="http://www.w3.org/2000/svg">
<g clip-path="url(#clip0_680_728)">
<rect width="60" height="40" fill="white"/>
<path d="M39.1427 11.9272C39.1427 14.6121 38.1847 17.2088 36.441 19.2504C34.6974 21.292 32.2825 22.6444 29.6307 23.0644C26.9789 23.4844 24.2643 22.9444 21.9751 21.5416C19.6859 20.1387 17.9723 17.9651 17.1427 15.4117" stroke="black"/>
<path d="M36.0553 11.9272C36.0553 13.8321 35.3757 15.6744 34.1386 17.1228C32.9015 18.5713 31.1882 19.5308 29.3068 19.8288C27.4254 20.1267 25.4995 19.7436 23.8753 18.7484C22.2512 17.7531 20.644 15.7388 20.0553 13.9272" stroke="black"/>
<mask id="path-3-inside-1_680_728" fill="white">
<path d="M30.0553 12.4272C30.0553 12.6993 29.9998 12.9685 29.8922 13.2184C29.7846 13.4682 29.6272 13.6935 29.4295 13.8804C29.2318 14.0673 28.9981 14.212 28.7426 14.3055C28.4871 14.3989 28.2152 14.4393 27.9436 14.4241C27.672 14.4089 27.4063 14.3385 27.1628 14.2171C26.9194 14.0957 26.7032 13.9259 26.5277 13.718C26.3521 13.5102 26.2207 13.2688 26.1417 13.0085C26.0626 12.7482 26.0375 12.4745 26.0678 12.2041L28.0553 12.4272H30.0553Z"/>
</mask>
<path d="M30.0553 12.4272C30.0553 12.6993 29.9998 12.9685 29.8922 13.2184C29.7846 13.4682 29.6272 13.6935 29.4295 13.8804C29.2318 14.0673 28.9981 14.212 28.7426 14.3055C28.4871 14.3989 28.2152 14.4393 27.9436 14.4241C27.672 14.4089 27.4063 14.3385 27.1628 14.2171C26.9194 14.0957 26.7032 13.9259 26.5277 13.718C26.3521 13.5102 26.2207 13.2688 26.1417 13.0085C26.0626 12.7482 26.0375 12.4745 26.0678 12.2041L28.0553 12.4272H30.0553Z" stroke="black" stroke-width="2" mask="url(#path-3-inside-1_680_728)"/>
<circle cx="24.0553" cy="14.4272" r="0.5" stroke="black"/>
<circle cx="28.0553" cy="16.4272" r="0.5" stroke="black"/>
<circle cx="32.0553" cy="14.4272" r="0.5" stroke="black"/>
<path d="M24.0553 24.4272L25.8678 24.8804C25.9885 24.9105 26.0936 24.9846 26.1626 25.0881L26.9069 26.2046C26.9996 26.3437 27.1558 26.4272 27.3229 26.4272H28.7878C28.9549 26.4272 29.111 26.3437 29.2038 26.2046L29.9481 25.0881C30.0171 24.9846 30.1222 24.9105 30.2429 24.8804L32.0553 24.4272" stroke="black"/>
<path d="M29.1434 25.0062L30.9913 24.7312C31.1143 24.7129 31.2397 24.7411 31.3431 24.8103L32.458 25.557C32.5969 25.65 32.7731 25.6675 32.9276 25.6035L34.2809 25.0429C34.4354 24.979 34.5476 24.842 34.5801 24.678L34.8405 23.3617C34.8646 23.2396 34.9334 23.131 35.0333 23.0569L36.5344 21.9447" stroke="black"/>
<path d="M34.0657 23.5942L35.6678 22.633C35.7744 22.569 35.9011 22.5471 36.0231 22.5715L37.3389 22.8346C37.5028 22.8674 37.6723 22.8161 37.7905 22.6979L38.8263 21.6621C38.9445 21.5439 38.9958 21.3744 38.963 21.2105L38.6998 19.8947C38.6755 19.7727 38.6974 19.646 38.7614 19.5394L39.7226 17.9373" stroke="black"/>
<path d="M38.0731 20.4064L39.1853 18.9053C39.2594 18.8054 39.368 18.7366 39.49 18.7125L40.8064 18.4521C40.9704 18.4196 41.1073 18.3074 41.1713 18.1529L41.7319 16.7996C41.7959 16.6452 41.7784 16.469 41.6854 16.3301L40.9387 15.2151C40.8695 15.1118 40.8413 14.9863 40.8596 14.8633L41.1346 13.0154" stroke="black"/>
<path d="M42.0553 11.4272L42.4346 12.5649C42.5059 12.7789 42.4252 13.014 42.2376 13.1391L41.2162 13.82C41.1127 13.889 41.0386 13.9941 41.0085 14.1148L40.5553 15.9272" stroke="black"/>
<path d="M18.0376 20.4064L16.9254 18.9053C16.8513 18.8053 16.7427 18.7366 16.6206 18.7124L15.3043 18.452C15.1403 18.4196 15.0033 18.3073 14.9394 18.1529L14.4555 16.9848C14.3547 16.7415 14.46 16.4617 14.6961 16.3451L16.5553 15.4271L23.4366 11.9865C23.5144 11.9476 23.601 11.9296 23.6879 11.9345L32.5165 12.4249C32.5424 12.4264 32.5683 12.4258 32.594 12.4232L42.5553 11.4271" stroke="black"/>
<path d="M16.3881 17.9377L17.3493 19.5397C17.4133 19.6464 17.4352 19.7731 17.4108 19.895L17.1477 21.2109C17.1149 21.3748 17.1662 21.5443 17.2844 21.6625L18.3202 22.6983C18.4384 22.8165 18.6079 22.8678 18.7718 22.835L20.0876 22.5718C20.2096 22.5474 20.3363 22.5694 20.4429 22.6334L22.0449 23.5946" stroke="black"/>
<path d="M19.5763 21.9453L21.0774 23.0575C21.1773 23.1315 21.2461 23.2402 21.2702 23.3622L21.5306 24.6786C21.5631 24.8426 21.6753 24.9795 21.8298 25.0435L23.1831 25.604C23.3375 25.668 23.5137 25.6506 23.6526 25.5575L24.7676 24.8109C24.8709 24.7417 24.9964 24.7135 25.1194 24.7318L26.9673 25.0067" stroke="black"/>
<path d="M48.6196 23.0301C50.5 23.9999 51.0761 27.8383 51.5 29.4998L51.5 31.4999L25.5 31.4999L21 31.4999C19.5 29.9999 20.5 28.4999 21.9915 28.6075C21.9915 28.6075 24.6109 29.1597 26.1213 29.3113C28 29.4999 31.3864 27.7771 33.7489 26.7159L34.9519 26.2009C35.7334 25.8663 36.6014 25.7907 37.4289 25.985L38.1766 26.1606C39.4366 23.7447 41.9056 23.4472 42.9826 23.6004C42.9926 24.4004 41.7999 25.4898 41 25.9999L43.8262 25.9999C44.2655 25.9999 44.6951 25.8698 45.0606 25.6261C45.603 25.2646 46.327 25.3474 46.7737 25.822L47.454 26.5449L47.4635 26.1246C47.4872 25.0686 47.8447 24.0473 48.4848 23.2071L48.6196 23.0301Z" stroke="black" stroke-linejoin="round"/>
<path d="M14.5 23.5002C16.0346 23.8839 18.5704 26.0089 20 27.0001C18.6137 26.5596 15.4584 25.6521 14.5 25.5001C13.1756 25.2901 9 26 8 25.5001C7.81401 25.4071 7.03537 25.1258 7 24.5001C6.96463 23.8743 7.27767 23.3057 8.5 23.0001C10.4997 22.5001 12.4993 23 14.499 23.4999L14.5 23.5002Z" stroke="black" stroke-linejoin="round"/>
<path d="M13.5 27.5002C14.5465 27.2452 17.0757 28.1569 18.2903 28.3422C17.3094 28.5099 15.1205 29.2823 14.5 29.5C13.6426 29.8009 11.2765 31.5006 10.5 31.5C10.3556 31.4999 9.7574 31.4057 9.5 31C9.2426 30.5943 9.39756 30.1109 10 29.5C10.9858 28.5005 12.1361 27.8326 13.5 27.5002Z" stroke="black" stroke-linejoin="round"/>
<ellipse cx="44.5122" cy="22.2704" rx="0.5" ry="1" transform="rotate(18.4457 44.5122 22.2704)" fill="black"/>
<ellipse cx="42.8482" cy="21.514" rx="0.5" ry="1" transform="rotate(22.7778 42.8482 21.514)" fill="black"/>
<circle cx="44.4562" cy="19.6002" r="0.5" transform="rotate(-13.099 44.4562 19.6002)" fill="black"/>
<circle cx="48.5" cy="21.5" r="0.5" fill="black"/>
<circle cx="4.5" cy="25.5" r="0.5" fill="black"/>
<circle cx="6.5" cy="26.5" r="0.5" fill="black"/>
</g>
<defs>
<clipPath id="clip0_680_728">
<rect width="60" height="40" fill="white"/>
</clipPath>
</defs>
</svg>
